<?xml version="1.0" standalone="no"?>
<!DOCTYPE svg PUBLIC "-//W3C//DTD SVG 20010904//EN"
 "http://www.w3.org/TR/2001/REC-SVG-20010904/DTD/svg10.dtd">
<svg version="1.0" xmlns="http://www.w3.org/2000/svg"
 width="576.000000pt" height="576.000000pt" viewBox="0 0 576.000000 576.000000"
 preserveAspectRatio="xMidYMid meet">
<metadata>
Created by potrace 1.14, written by Peter Selinger 2001-2017
</metadata>
<g transform="translate(0.000000,576.000000) scale(0.100000,-0.100000)"
fill="#000000" stroke="none">
<path d="M2634 4469 c-39 -5 -102 -17 -140 -27 l-69 -17 -5 -410 c-3 -249 -9
-417 -15 -427 -9 -16 -74 -68 -157 -126 -18 -13 -95 -68 -171 -122 -140 -99
-184 -118 -229 -101 -22 8 -165 103 -345 228 -97 67 -132 56 -173 -53 -142
-381 -112 -869 77 -1249 82 -163 232 -362 327 -433 145 -109 136 -106 198 -62
24 17 54 38 68 48 14 9 57 40 95 68 184 134 199 141 259 130 61 -12 66 -37 66
-325 l0 -251 24 -10 c57 -21 201 -42 331 -47 453 -18 874 146 1195 467 222
222 362 476 433 789 29 127 31 149 31 336 0 202 -10 290 -49 422 l-15 52 -76
-54 c-83 -60 -128 -74 -170 -53 -52 24 -54 38 -54 364 l0 301 -60 66 c-113
123 -295 259 -450 337 -154 77 -356 138 -530 160 -99 12 -295 11 -396 -1z"/>
<path d="M1784 4082 c-119 -103 -304 -327 -304 -369 0 -6 65 -56 145 -110 208
-141 232 -156 244 -148 14 8 15 695 2 695 -5 0 -44 -31 -87 -68z"/>
</g>
</svg>
